<?xml version="1.0" encoding="UTF-8" standalone="no"?>
<svg
   viewBox="0 0 39.999998 40.000001"
   version="1.1"
   id="svg3859"
   sodipodi:docname="pluginIcon_dark.svg"
   width="40"
   height="40"
   inkscape:version="1.2 (dc2aeda, 2022-05-15)"
   xmlns:inkscape="http://www.inkscape.org/namespaces/inkscape"
   xmlns:sodipodi="http://sodipodi.sourceforge.net/DTD/sodipodi-0.dtd"
   xmlns="http://www.w3.org/2000/svg"
   xmlns:svg="http://www.w3.org/2000/svg"
   xmlns:rdf="http://www.w3.org/1999/02/22-rdf-syntax-ns#"
   xmlns:cc="http://creativecommons.org/ns#"
   xmlns:dc="http://purl.org/dc/elements/1.1/">
  <metadata
     id="metadata3863">
    <rdf:RDF>
      <cc:Work
         rdf:about="">
        <dc:format>image/svg+xml</dc:format>
        <dc:type
           rdf:resource="http://purl.org/dc/dcmitype/StillImage" />
        <dc:title>Asset 3</dc:title>
      </cc:Work>
    </rdf:RDF>
  </metadata>
  <sodipodi:namedview
     pagecolor="#300033"
     bordercolor="#666666"
     borderopacity="1"
     objecttolerance="10"
     gridtolerance="10"
     guidetolerance="10"
     inkscape:pageopacity="0"
     inkscape:pageshadow="2"
     inkscape:window-width="1312"
     inkscape:window-height="848"
     id="namedview3861"
     showgrid="false"
     inkscape:zoom="2.9803493"
     inkscape:cx="25.500367"
     inkscape:cy="16.105495"
     inkscape:window-x="1793"
     inkscape:window-y="428"
     inkscape:window-maximized="0"
     inkscape:current-layer="Layer_2"
     inkscape:showpageshadow="2"
     inkscape:pagecheckerboard="0"
     inkscape:deskcolor="#d1d1d1" />
  <defs
     id="defs3851">
    <style
       id="style3849">.cls-1{fill:#01acfb;}</style>
  </defs>
  <title
     id="title3853">Asset 3</title>
  <g
     id="Layer_2"
     data-name="Layer 2"
     transform="matrix(0.26655703,0,0,0.26655703,1.365931,2.8380313)">
    <path
       d="m 79.571438,76.107629 h 43.566742 c 5.40959,0 6.97042,-5.132597 9.76471,-9.764704 l 4.88228,-8.093236 -4.88228,-6.977057 c -3.10148,-4.432301 -4.35499,-9.764704 -9.76471,-9.764704 v -3.9e-4 H 79.571438"
       fill="#f2f2f2"
       id="path537"
       style="fill:#b3b3b3;stroke:#ffffff;stroke-width:3.00659;stroke-linecap:round"
       sodipodi:nodetypes="cscccccc" />
    <path
       d="M 59.227708,106.47236 V 20.506466 c 0,-5.409591 4.355113,-9.764704 9.764704,-9.764704 5.409592,0 9.764704,4.355113 9.764704,9.764704 v 85.965894"
       fill="#ffffff"
       id="path539"
       style="stroke:#ffffff;stroke-width:3.00659;stroke-linecap:round;fill:none" />
    <path
       d="m 16.674961,25.391617 h 43.566745 c 5.409591,0 9.764704,4.355113 9.764704,9.764704 v 15.070683 c 0,5.409592 -4.355113,9.764704 -9.764704,9.764704 H 16.674961 c -5.409591,0 -6.9704183,-5.132597 -9.7647036,-9.764704 L 2.0278403,42.133769 6.9102574,35.156712 C 10.011736,30.724541 11.26537,25.392008 16.674961,25.392008 Z"
       fill="#f9f9f9"
       id="path541"
       style="stroke:#ffffff;stroke-width:3.00659;stroke-linecap:round;fill:#b3b3b3" />
    <path
       d="M 74.602981,20.346362 V 118.02594"
       fill="#2c5aa0"
       id="path543"
       style="stroke:#ffffff;stroke-width:3.00659;stroke-linecap:round" />
  </g>
</svg>
